<svg xmlns="http://www.w3.org/2000/svg" width="418.632" height="290.105" viewBox="0 0 418.632 290.105">
  <g id="burger" transform="translate(-0.576 224)">
    <path id="Path_3" data-name="Path 3" d="M93.4-216.444c-15.737,6.951-16.72,7.707-16.72,12.089,0,2.418-.328,4.533-.656,4.533a32.433,32.433,0,0,1-6.557-3.173c-3.115-1.662-7.377-2.871-9.508-2.569-4.1.453-3.934,0-7.213,33.7L51.6-161.287,46.35-179.874c-2.951-10.276-5.737-18.89-6.229-19.494-1.311-1.209-28.85-6.347-34.26-6.5-2.787,0-4.754.907-5.246,2.569-.492,1.511,3.77,21.005,9.508,43.521,5.737,22.365,9.835,40.952,9.18,41.255a50.674,50.674,0,0,0-6.885,3.929C2.09-108.245,2.09-108.849,14.549-26.038c7.7,51.228,12.13,76.465,14.1,80.092a27.33,27.33,0,0,0,8.688,8.311c5.409,2.871,8.36,3.022,60.651,3.022,52.127,0,55.242-.151,60.488-3.022a26.78,26.78,0,0,0,9.016-9.218l3.442-6.347,6.393,5.138a60.649,60.649,0,0,0,29.834,12.694C219.78,66.6,343.378,66.6,356,64.632c19.343-2.871,33.932-12.543,42.292-28.259,4.426-8.463,5.409-11.938,5.9-23.725.656-12.694.984-14.054,5.409-18.285,9.344-9.067,12.13-22.516,7.213-33.548-2.131-4.685-2.295-6.8-.656-12.845,2.623-8.916.164-17.227-6.557-23.423-4.262-4.08-4.754-5.44-5.409-18.587-.984-17.227-4.426-25.539-15.409-36.268A71.928,71.928,0,0,0,371.9-141.944l-9.18-4.231H282.4c-85.076,0-85.076,0-96.387,7.254-2.623,1.511-4.918,2.72-5.082,2.418-.328-.3,2.131-15.867,5.573-34.606s5.9-34.757,5.409-35.814a5.713,5.713,0,0,0-3.115-2.569c-2.131-.756-34.26,6.951-36.227,8.765-.656.453-2.295,6.8-3.77,14.2l-2.787,13.147-1.147-9.067c-2.295-19.8-3.115-22.667-7.213-23.121-1.967-.3-6.885,1.209-10.983,3.325-3.934,2.116-7.868,3.929-8.852,3.929-1.147,0-1.8-4.08-1.8-10.427,0-7.556-.656-11.183-2.623-12.845A13.249,13.249,0,0,0,110.443-224C110.115-224,102.575-220.675,93.4-216.444Zm11.639,47.9c.656,21.307,1.147,44.73,1.147,52.135v13.3H89.789v-14.809c0-8.16-.492-30.223-1.147-48.962l-.984-34.152,6.393-3.173a46.6,46.6,0,0,1,8.2-3.173C103.395-207.377,104.378-194.986,105.034-168.54Zm66.717,11.787c-3.606,20.552-6.557,37.628-6.557,37.93s-3.278.6-7.377.6h-7.377v-7.254c0-3.929,2.623-20.4,5.737-36.57s5.737-29.619,5.737-29.77c0-1.058,15.737-4.382,16.064-3.476C178.307-194.683,175.521-177.305,171.75-156.753ZM24.876-191.51c3.278.6,6.065,2.116,6.557,3.627,4.754,14.961,17.376,62.562,17.376,65.584,0,3.929-.492,4.08-7.868,4.08H33.072l-8.688-34.454c-11.639-45.033-10.983-41.708-7.868-40.65A56.928,56.928,0,0,0,24.876-191.51Zm47.538,2.418,4.1,1.813L77-147.837c.328,21.761.328,39.744.164,40.046-.82,1.209-13.77-7.556-14.753-9.823-.984-2.418,2.295-61.655,3.77-69.06C67.168-191.359,67-191.359,72.413-189.092ZM134.7-159.473c1.475,17.378,3.278,33.7,3.77,36.268.492,3.173.164,4.987-.984,4.987-.984,0-5.246,2.418-9.508,5.44l-7.868,5.591-1.147-8.916c-.492-4.987-1.147-22.365-1.475-38.988L117-185.163l5.737-2.72a40.014,40.014,0,0,1,7.377-2.871C131.1-190.754,132.9-178.816,134.7-159.473Zm230.475,27.05c16.884,7.254,25.736,19.494,27.375,38.232l.984,10.729H189.946L190.6-88c.492-2.569,1.147-6.649,1.639-9.218.984-5.894-2.459-13.6-8.032-17.681-5.573-3.929-4.262-6.951,5.573-13.147,12.458-7.858,15.9-8.16,95.075-7.858C355.016-135.6,358.131-135.446,365.179-132.424ZM62.742-101.445C70.61-96,87.33-91.018,97.985-91.018c10.491,0,25.572-4.533,34.916-10.276,7.7-4.987,19.343-6.649,21.8-3.173.492.907-1.475,18.587-4.426,39.441-4.426,30.072-5.9,36.721-6.885,32.792-5.737-21.156-20.818-34-41.964-35.663C73.4-70.315,49.628-47.95,52.579-21.958,54.218-7,65.365,6.6,81.1,12.8c9.016,3.476,25.736,3.325,34.916-.6C125.2,8.417,135.2-.65,139.13-8.659c1.639-3.325,3.115-5.44,3.115-4.836,0,3.627-8.524,57.122-9.835,61.807l-1.8,5.742H89.789c-22.457,0-42.62-.6-44.751-1.36-2.295-.907-4.754-3.022-5.409-4.987-2.951-8.765-23.113-148.7-21.638-151.267,1.147-2.267,3.934-2.569,19.835-2.569C55.693-105.978,56.349-105.978,62.742-101.445Zm337.681,33.85c6.229,5.591,5.737,14.356-.984,19.494-6.229,4.836-8.688,4.836-20.162,0-8.2-3.476-11.147-3.929-22.294-3.476-12.13.6-13.278.907-24.261,7.858-20.326,12.845-29.178,12.845-49.013.6-10.983-6.951-13.442-7.858-22.785-8.311-15.245-.907-20.49.453-33.768,8.765-16.556,10.276-27.375,11.334-40,3.929-3.442-2.116-3.442-2.418-1.311-16.321,1.147-7.707,2.131-14.507,2.295-15.263,0-.6,46.882-1.058,104.091-1.058H396.489ZM116.345-50.821C133.72-39.487,135.2-17.575,119.3-4.277,108.312,4.79,94.543,6.15,81.265-.65a29.058,29.058,0,0,1-7.377-46.393C84.052-57.319,103.723-59.132,116.345-50.821ZM276.169-33.291c14.1,9.369,18.359,10.88,30.818,10.88,12.622.151,20.818-2.72,33.276-11.334,10-7.1,22.785-7.858,36.719-2.116,7.377,3.022,11.475,3.929,15.9,3.173,13.442-1.965,12.458-2.418,12.458,6.347C405.177-14.1,401.9-11.984,381.9-10.775c-8.688.6-57.865,1.058-109.173,1.209l-93.272.151,1.147-7.858c.656-4.382,1.475-8.16,1.8-8.462s3.934.6,8.032,1.813c14.917,4.685,26.719,2.267,44.423-8.765,11.147-7.1,11.475-7.254,22.13-6.649C266.334-38.883,268.957-38.127,276.169-33.291ZM143.392-16.669c-.492,1.209-.984.756-.984-.907-.164-1.662.328-2.569.82-1.965A2.855,2.855,0,0,1,143.392-16.669Zm68.848,35.21c10,13.9,13.278,17.378,15.9,17.076,2.295-.3,7.7-6.2,15.737-17.076L256.171,1.919H392.227L391.9,12.5c0,5.894-1.311,13.147-2.787,16.321C385.506,36.373,376,46.045,367.8,49.974c-6.721,3.325-7.7,3.325-86.223,3.325-74.421,0-79.83-.151-85.24-2.871C188.307,46.5,180.274,39.244,176.5,32.444c-2.951-5.289-3.115-6.8-1.475-17.378,1.147-6.347,2.295-12.089,2.787-12.845.328-.6,5.409-1.058,11.311-1.058h10.491ZM240.6,1.919c0,1.058-11.8,17.378-12.458,17.378-.984,0-12.13-15.716-12.13-16.925,0-.756,5.573-1.209,12.294-1.209S240.6,1.465,240.6,1.919Z" transform="translate(0 0)" fill="#fc453f"/>
  </g>
</svg>
